<svg width="528" height="186" viewBox="0 0 528 186" fill="none" xmlns="http://www.w3.org/2000/svg">
<g filter="url(#filter0_d)">
<rect x="0.383026" y="24.0597" width="500" height="99.5108" transform="rotate(-2 0.383026 24.0597)" fill="#FF006E"/>
</g>
<path d="M60.4751 43.0705L84.4365 42.2338L84.6928 49.5733L71.309 50.0407L71.902 67.0223L82.8393 66.6404L83.0981 74.0519L72.1608 74.4338L73.088 100.986L62.5105 101.355L60.4751 43.0705ZM97.1491 41.7898L108.518 41.3928L122.21 99.2702L112.352 99.6145L109.58 86.2391L99.4342 86.5934L97.5295 100.132L87.5276 100.481L97.1491 41.7898ZM108.192 79.5154L103.381 55.1885L100.277 79.7918L108.192 79.5154ZM126.037 40.7811L136.614 40.4117L137.509 66.0281L148.199 40.0071L158.345 39.6528L148.099 66.0185L161.532 97.8971L150.954 98.2665L140.315 72.1258L137.878 76.6056L138.65 98.6962L128.072 99.0655L126.037 40.7811ZM164.334 39.4437L188.799 38.5894L189.06 46.0728L175.173 46.5578L175.758 63.3235L186.695 62.9416L186.954 70.3531L176.017 70.735L176.693 90.0912L190.724 89.6012L190.978 96.8688L166.369 97.7282L164.334 39.4437ZM212.609 37.7579L236.57 36.9211L236.827 44.2607L223.443 44.728L224.036 61.7097L234.973 61.3277L235.232 68.7392L224.295 69.1212L225.222 95.673L214.644 96.0424L212.609 37.7579ZM242.333 36.7199L256.364 36.2299C262.505 36.0155 267.127 37.0308 270.231 39.2758C273.334 41.4729 274.984 45.4017 275.182 51.0622C275.311 54.756 274.864 57.7974 273.843 60.1865C272.868 62.526 271.08 64.2694 268.478 65.4169L277.612 93.8435L266.963 94.2154L259.051 67.7634L254.014 67.9393L254.946 94.635L244.368 95.0044L242.333 36.7199ZM257.164 61.2012C260.187 61.0957 262.297 60.3255 263.496 58.8908C264.742 57.4545 265.31 55.1532 265.2 51.9872C265.093 48.917 264.439 46.7065 263.239 45.3556C262.087 44.0029 260.048 43.3777 257.122 43.4799L253.164 43.6181L253.783 61.3193L257.164 61.2012ZM282.956 35.3013L293.461 34.9345L295.497 93.2189L284.991 93.5858L282.956 35.3013ZM302.484 34.6194L326.949 33.765L327.21 41.2485L313.323 41.7335L313.908 58.4992L324.846 58.1173L325.104 65.5288L314.167 65.9107L314.843 85.2669L328.874 84.7769L329.128 92.0445L304.519 92.9039L302.484 34.6194ZM333.262 33.5446L340.673 33.2858L356.01 66.0345L354.849 32.7908L363.627 32.4842L365.663 90.7687L358.611 91.0149L343.148 56.6857L344.364 91.5125L335.297 91.8291L333.262 33.5446ZM372.472 32.1753L386.216 31.6954C390.917 31.5312 394.634 32.0498 397.365 33.2512C400.095 34.4047 402.058 36.2813 403.253 38.8812C404.495 41.4314 405.191 44.8652 405.342 49.1826L406.083 70.4096C406.237 74.8229 405.787 78.4169 404.731 81.1914C403.723 83.9643 401.924 86.0923 399.334 87.5756C396.743 89.0109 393.192 89.8073 388.683 89.9648L374.508 90.4598L372.472 32.1753ZM388.137 82.5634C390.487 82.4813 392.176 82.0141 393.203 81.1617C394.23 80.3093 394.862 79.1586 395.099 77.7094C395.335 76.2123 395.403 74.0246 395.302 71.1463L394.523 48.8399C394.433 46.2495 394.196 44.2886 393.814 42.9571C393.431 41.6256 392.677 40.6674 391.552 40.0823C390.473 39.4475 388.783 39.1704 386.48 39.2508L383.314 39.3614L384.827 82.6789L388.137 82.5634ZM429.268 89.34C423.991 89.5243 419.982 88.1754 417.24 85.2933C414.545 82.4096 412.975 78.0217 412.529 72.1297L421.605 70.0117C421.878 73.7004 422.552 76.5106 423.628 78.4422C424.751 80.3242 426.415 81.2266 428.622 81.1496C430.253 81.0926 431.435 80.571 432.17 79.5848C432.95 78.549 433.311 77.1915 433.252 75.5126C433.172 73.21 432.576 71.2856 431.465 69.7394C430.401 68.1436 428.732 66.4248 426.458 64.583L418.895 58.4352C416.574 56.5951 414.799 54.5918 413.57 52.4254C412.39 50.2572 411.746 47.6381 411.639 44.568C411.48 40.0108 412.676 36.4389 415.227 33.8522C417.825 31.216 421.474 29.8158 426.175 29.6516C431.212 29.4757 434.86 30.7892 437.119 33.592C439.425 36.3453 440.83 40.1385 441.335 44.9719L432.252 46.874C431.997 43.713 431.459 41.3543 430.636 39.7981C429.86 38.1922 428.392 37.427 426.233 37.5024C424.698 37.556 423.517 38.1255 422.691 39.211C421.862 40.2486 421.476 41.5589 421.531 43.1419C421.597 45.0127 422.012 46.5832 422.776 47.8533C423.587 49.0737 424.858 50.3742 426.587 51.7547L434.078 57.905C436.894 60.1601 439.117 62.604 440.746 65.2368C442.375 67.8695 443.251 70.9608 443.375 74.5107C443.472 77.293 442.935 79.7852 441.763 81.9875C440.639 84.188 438.996 85.9505 436.833 87.2748C434.668 88.5511 432.146 89.2395 429.268 89.34Z" fill="black"/>
<g filter="url(#filter1_d)">
<rect x="160.878" y="100" width="346" height="55" transform="rotate(3 160.878 100)" fill="#FB5607"/>
</g>
<path d="M192.044 119.674C192.125 118.116 192.379 116.94 192.805 116.145C193.231 115.35 193.943 114.847 194.939 114.635L195.503 115.565C194.841 115.819 194.376 116.215 194.107 116.754C193.864 117.27 193.713 118.091 193.654 119.218L195.128 119.295L194.941 122.854L191.885 122.694L192.044 119.674ZM196.897 119.928C196.979 118.371 197.232 117.194 197.659 116.399C198.085 115.605 198.796 115.101 199.793 114.889L200.357 115.82C199.694 116.073 199.229 116.47 198.961 117.008C198.717 117.524 198.566 118.346 198.507 119.472L199.981 119.549L199.794 123.108L196.739 122.948L196.897 119.928ZM204.723 116.157L206.7 116.26L214.791 139.359L215.976 116.747L218.349 116.871L216.822 145.991L214.881 145.889L206.768 122.537L205.57 145.401L203.197 145.277L204.723 116.157ZM228.758 146.977C226.026 146.834 224.125 145.953 223.057 144.335C222.012 142.718 221.564 140.484 221.714 137.631L222.347 125.552C222.495 122.724 223.183 120.597 224.412 119.171C225.641 117.722 227.61 117.068 230.318 117.21C232.979 117.349 234.844 118.204 235.916 119.774C236.987 121.344 237.449 123.532 237.302 126.336L236.667 138.451C236.518 141.303 235.839 143.479 234.631 144.978C233.424 146.452 231.467 147.119 228.758 146.977ZM228.873 144.784C230.647 144.877 231.896 144.426 232.621 143.43C233.348 142.411 233.763 140.895 233.869 138.881L234.56 125.687C234.666 123.674 234.41 122.147 233.791 121.105C233.197 120.064 232.001 119.497 230.203 119.403C228.382 119.307 227.109 119.745 226.385 120.717C225.663 121.664 225.248 123.157 225.141 125.194L224.45 138.388C224.343 140.425 224.598 141.976 225.215 143.042C225.832 144.108 227.052 144.688 228.873 144.784ZM242.289 118.126L248.544 118.453C251.085 118.587 252.873 119.317 253.909 120.645C254.946 121.949 255.404 123.764 255.282 126.088C255.199 127.67 254.84 129.009 254.206 130.106C253.572 131.202 252.589 131.847 251.257 132.042C252.816 132.556 253.897 133.49 254.499 134.843C255.101 136.197 255.355 137.772 255.26 139.57C255.123 142.182 254.5 144.216 253.39 145.672C252.306 147.105 250.493 147.756 247.953 147.622L240.763 147.246L242.289 118.126ZM248.318 131.023C249.876 131.104 250.99 130.718 251.659 129.864C252.33 128.986 252.711 127.684 252.801 125.958C252.865 124.736 252.749 123.745 252.452 122.984C252.18 122.225 251.646 121.644 250.849 121.242C250.077 120.841 248.96 120.602 247.498 120.525L244.91 120.39L244.364 130.815L248.318 131.023ZM247.521 145.545C248.767 145.61 249.737 145.445 250.431 145.049C251.15 144.63 251.665 143.972 251.976 143.075C252.312 142.179 252.52 140.964 252.6 139.43C252.811 135.404 251.359 133.309 248.243 133.146L244.252 132.937L243.602 145.34L247.521 145.545ZM265.692 148.913C262.96 148.769 261.059 147.889 259.99 146.271C258.946 144.654 258.498 142.419 258.647 139.567L259.28 127.488C259.429 124.66 260.117 122.533 261.345 121.107C262.575 119.657 264.544 119.003 267.252 119.145C269.912 119.285 271.778 120.14 272.849 121.71C273.921 123.28 274.383 125.467 274.236 128.271L273.601 140.387C273.452 143.239 272.773 145.414 271.565 146.913C270.358 148.388 268.4 149.054 265.692 148.913ZM265.807 146.72C267.58 146.813 268.83 146.361 269.555 145.366C270.281 144.346 270.697 142.83 270.803 140.817L271.494 127.623C271.6 125.61 271.343 124.082 270.725 123.04C270.131 122 268.935 121.433 267.137 121.338C265.316 121.243 264.043 121.681 263.319 122.652C262.596 123.6 262.182 125.092 262.075 127.129L261.384 140.323C261.277 142.36 261.532 143.912 262.149 144.978C262.766 146.043 263.985 146.624 265.807 146.72ZM279.223 120.061L285.55 120.393C288.426 120.543 290.424 121.393 291.545 122.942C292.666 124.467 293.155 126.607 293.011 129.363L292.404 140.94C292.252 143.84 291.548 146.038 290.292 147.534C289.061 149.008 287.056 149.672 284.275 149.526L277.696 149.181L279.223 120.061ZM284.203 147.467C285.665 147.544 286.771 147.302 287.522 146.74C288.297 146.156 288.819 145.366 289.088 144.371C289.357 143.351 289.536 142.015 289.622 140.361L290.191 129.504C290.274 127.922 290.208 126.657 289.994 125.709C289.78 124.736 289.315 123.979 288.599 123.436C287.882 122.894 286.817 122.586 285.403 122.512L281.844 122.325L280.536 147.275L284.203 147.467ZM301.589 140.736L296.029 120.942L298.689 121.081L303.09 137.534L308.971 121.62L311.667 121.762L304.249 140.875L303.742 150.546L301.082 150.407L301.589 140.736ZM322.16 122.311L324.892 122.455L323.473 149.525L331.742 149.959L331.634 152.008L320.634 151.431L322.16 122.311ZM335.959 123.035L338.691 123.178L337.165 152.298L334.433 152.155L335.959 123.035ZM343.821 123.447L346.589 123.592L345.782 138.979L354.354 123.999L356.978 124.136L350.355 136.334L356.747 153.324L354.05 153.183L348.414 138.287L345.577 142.897L345.063 152.712L342.294 152.567L343.821 123.447ZM360.813 124.337L371.346 124.889L371.235 127.01L363.47 126.603L362.897 137.532L369.224 137.864L369.119 139.877L362.792 139.546L362.162 151.553L370 151.964L369.892 154.013L359.287 153.457L360.813 124.337ZM379.811 154.893C377.535 154.774 375.833 153.988 374.708 152.535C373.584 151.058 373.002 149.081 372.964 146.604L375.41 146.011C375.518 148.083 375.89 149.689 376.528 150.828C377.189 151.968 378.334 152.581 379.964 152.666C382.696 152.809 384.136 151.479 384.283 148.675C384.346 147.476 384.113 146.407 383.586 145.466C383.082 144.526 382.238 143.437 381.054 142.197L376.171 137.002C375.281 136.09 374.645 135.156 374.263 134.199C373.906 133.219 373.757 132.153 373.818 131.003C373.922 129.014 374.589 127.51 375.82 126.493C377.076 125.454 378.711 124.987 380.724 125.092C382.881 125.205 384.505 125.867 385.595 127.078C386.685 128.289 387.258 130.205 387.313 132.828L384.944 133.316C384.903 131.343 384.56 129.86 383.915 128.864C383.294 127.871 382.193 127.332 380.611 127.249C379.365 127.184 378.353 127.455 377.577 128.064C376.8 128.672 376.378 129.611 376.311 130.881C376.269 131.696 376.386 132.435 376.664 133.099C376.941 133.762 377.433 134.473 378.138 135.231L383.025 140.354C384.278 141.669 385.241 143.005 385.915 144.362C386.614 145.697 386.924 147.119 386.845 148.629C386.734 150.738 386.038 152.336 384.755 153.422C383.473 154.508 381.825 154.999 379.811 154.893ZM402.665 146.033L397.105 126.239L399.765 126.379L404.166 142.831L410.047 126.917L412.744 127.059L405.325 146.173L404.818 155.843L402.158 155.704L402.665 146.033ZM421.256 157.065C418.524 156.922 416.623 156.041 415.554 154.423C414.509 152.806 414.062 150.572 414.211 147.72L414.844 135.64C414.993 132.812 415.681 130.685 416.909 129.26C418.139 127.81 420.108 127.156 422.816 127.298C425.476 127.438 427.342 128.292 428.413 129.863C429.485 131.433 429.947 133.62 429.8 136.424L429.165 148.54C429.015 151.392 428.337 153.567 427.128 155.066C425.922 156.541 423.964 157.207 421.256 157.065ZM421.371 154.872C423.144 154.965 424.394 154.514 425.119 153.519C425.845 152.499 426.261 150.983 426.366 148.97L427.058 135.776C427.163 133.763 426.907 132.235 426.289 131.193C425.694 130.153 424.498 129.585 422.701 129.491C420.879 129.396 419.607 129.834 418.883 130.805C418.16 131.753 417.746 133.245 417.639 135.282L416.947 148.476C416.841 150.513 417.096 152.065 417.713 153.13C418.33 154.196 419.549 154.777 421.371 154.872ZM440.36 158.066C437.555 157.92 435.651 157.111 434.647 155.64C433.644 154.146 433.212 152.056 433.353 149.372L434.463 128.197L437.123 128.336L436.01 149.583C435.909 151.501 436.167 153.004 436.783 154.094C437.422 155.185 438.653 155.778 440.475 155.874C442.224 155.965 443.486 155.503 444.26 154.486C445.036 153.445 445.473 151.978 445.573 150.084L446.686 128.838L449.31 128.975L448.201 150.15C448.063 152.786 447.392 154.806 446.189 156.209C445.011 157.589 443.068 158.208 440.36 158.066ZM453.772 129.209L456.576 129.356L454.407 152.17L453.473 152.121L453.772 129.209ZM452.376 155.163L455.18 155.31L455.014 158.474L452.21 158.327L452.376 155.163ZM460.228 136.829C460.888 136.623 461.34 136.263 461.583 135.747C461.852 135.208 462.016 134.363 462.076 133.213L460.638 133.138L460.825 129.579L463.845 129.737L463.686 132.757C463.605 134.314 463.351 135.491 462.925 136.286C462.522 137.082 461.822 137.598 460.825 137.834L460.228 136.829ZM465.082 137.084C465.741 136.878 466.193 136.517 466.436 136.001C466.705 135.462 466.869 134.618 466.93 133.467L465.492 133.392L465.678 129.833L468.698 129.991L468.54 133.011C468.458 134.569 468.204 135.745 467.778 136.54C467.376 137.336 466.676 137.852 465.678 138.088L465.082 137.084Z" fill="black"/>
<defs>
<filter id="filter0_d" x="0.383026" y="6.6099" width="527.168" height="140.9" filterUnits="userSpaceOnUse" color-interpolation-filters="sRGB">
<feFlood flood-opacity="0" result="BackgroundImageFix"/>
<feColorMatrix in="SourceAlpha" type="matrix" values="0 0 0 0 0 0 0 0 0 0 0 0 0 0 0 0 0 0 127 0"/>
<feOffset dx="24" dy="24"/>
<feColorMatrix type="matrix" values="0 0 0 0 0 0 0 0 0 0 0 0 0 0 0 0 0 0 1 0"/>
<feBlend mode="normal" in2="BackgroundImageFix" result="effect1_dropShadow"/>
<feBlend mode="normal" in="SourceGraphic" in2="effect1_dropShadow" result="shape"/>
</filter>
<filter id="filter1_d" x="158" y="100" width="360.404" height="85.0329" filterUnits="userSpaceOnUse" color-interpolation-filters="sRGB">
<feFlood flood-opacity="0" result="BackgroundImageFix"/>
<feColorMatrix in="SourceAlpha" type="matrix" values="0 0 0 0 0 0 0 0 0 0 0 0 0 0 0 0 0 0 127 0"/>
<feOffset dx="12" dy="12"/>
<feColorMatrix type="matrix" values="0 0 0 0 0 0 0 0 0 0 0 0 0 0 0 0 0 0 1 0"/>
<feBlend mode="normal" in2="BackgroundImageFix" result="effect1_dropShadow"/>
<feBlend mode="normal" in="SourceGraphic" in2="effect1_dropShadow" result="shape"/>
</filter>
</defs>
</svg>